<svg xmlns="http://www.w3.org/2000/svg" xmlns:xlink="http://www.w3.org/1999/xlink" version="1.1" x="0px" y="0px" viewBox="0 0 100 125" enable-background="new 0 0 100 100" xml:space="preserve"><path fill="#000000" d="M95.1493,26.0849c-0.1614-0.5782-0.6367-1.0151-1.2262-1.1277c-0.0963-0.0185-9.771-1.9252-21.2971-9.0827  c-2.7322-1.697-5.6885-2.1713-8.7825-1.4101c-5.4622,1.3431-10.1927,6.3171-13.0575,10.0018v-4.5458  c2.8885-0.7114,5.0401-3.3167,5.0401-6.4217c0-3.6504-2.9699-6.6201-6.6203-6.6201s-6.6199,2.9697-6.6199,6.6201  c0,3.105,2.1513,5.7103,5.0398,6.4217v4.4956c-2.8686-3.6796-7.5802-8.6146-13.018-9.9516  c-3.0952-0.7617-6.0502-0.2869-8.7825,1.4101c-11.5258,7.1576-21.2008,9.0642-21.2959,9.0824  c-0.5901,0.1117-1.0657,0.5484-1.2277,1.1268c-0.1617,0.5784,0.0182,1.1985,0.4648,1.6002  c0.1197,0.1079,2.9804,2.6549,7.2023,4.0673c1.8471,0.618,3.6655,0.9249,5.4367,0.9249c0.0958,0,0.191-0.0048,0.2866-0.0066  c1.6431,1.7043,5.0433,3.8318,9.2863,3.8318c0.6606,0,1.3424-0.0539,2.0404-0.1667c1.9253,1.3163,5.0709,2.7386,8.3941,2.7386  c2.3715,0,4.8327-0.7246,7.0017-2.7295l0.3969-0.3682c1.2478-1.1597,2.5256-2.3444,3.8143-2.9395v19.5475  c-0.3373-0.1089-0.6752-0.2179-1.016-0.3276c-3.351-1.0788-6.8162-2.1941-9.421-3.3709c-3.6062-1.6288-3.7022-2.5739-3.7025-2.5832  c-0.0004-0.0054,0.0379-0.3698,0.8713-1.0083c1.0005,0.8866,2.8338,1.3148,4.8278,0.9987c2.817-0.4466,5.1954-1.5728,4.9224-3.2952  c-0.2731-1.7224-3.0941-3.3887-5.9111-2.9422c-1.094,0.1734-2.0713,0.5461-2.8451,1.0362  c-2.2833,1.0603-5.1748,2.7556-5.0203,5.3954c0.2089,3.5646,5.6351,5.6475,14.5901,8.5453  c-3.8902,2.3508-4.5648,5.1088-4.5522,6.7701c0.0201,2.6995,1.8335,5.2754,4.8534,7.1381  c-2.1477,1.0899-3.3683,2.4216-3.7075,4.0308c-0.6407,3.0384,2.2505,5.5665,3.4853,6.6459c1.926,1.6843,2.5197,5.2855,2.6255,7.0304  v4.894c0,0.8726,0.7074,1.5801,1.5801,1.5801s1.5801-0.7075,1.5801-1.5801v-4.2288c0.0079-0.063,0.0195-0.1249,0.0198-0.1899  c0.0052-1.4311,0.4963-5.5711,2.677-7.5159c1.3339-1.1897,4.1096-3.6657,3.4618-6.6645c-0.3447-1.5962-1.5613-2.9183-3.6961-4.0018  c3.0199-1.8628,4.8333-4.4388,4.8537-7.1384c0.0123-1.6612-0.6623-4.4193-4.5525-6.7699c8.955-2.8978,14.3815-4.9807,14.5901-8.5453  c0.1545-2.6397-2.7367-4.335-5.0199-5.3953c-0.7738-0.4902-1.7513-0.863-2.8453-1.0364c-2.8171-0.4466-5.6381,1.2197-5.9112,2.9422  c-0.273,1.7224,2.1053,2.8486,4.9224,3.2952c1.9939,0.3161,3.8273-0.1121,4.8277-0.9987c0.8335,0.6385,0.8717,1.0029,0.8716,1.0083  c-0.0006,0.0094-0.0966,0.9544-3.7025,2.5832c-2.6051,1.1766-6.0703,2.2921-9.4213,3.3708  c-0.3607,0.1161-0.7186,0.2315-1.0752,0.3468V33.0185c1.3018,0.5888,2.593,1.7852,3.8535,2.9567l0.3975,0.3686  c2.1693,2.0051,4.6296,2.7295,7.0017,2.7295c3.3226,0,6.4685-1.4223,8.394-2.7385c0.698,0.1128,1.3795,0.1666,2.0402,0.1666  c4.2424,0,7.6434-2.1276,9.2863-3.8318c0.0955,0.0018,0.1907,0.0066,0.2866,0.0066c1.7709-0.0002,3.5899-0.3071,5.4367-0.9249  c4.2219-1.4124,7.0826-3.9595,7.2023-4.0673C95.1308,27.2826,95.3104,26.663,95.1493,26.0849z M41.6599,33.6609l-0.3901,0.3622  c-3.0102,2.7818-6.6942,2.0033-9.1383,0.9528c0.5504-0.2778,1.1063-0.5962,1.6666-0.9634c0.7302-0.4784,0.9339-1.4579,0.4555-2.1878  c-0.4781-0.7297-1.457-0.9339-2.1875-0.4555c-4.8101,3.1521-8.8288,1.9027-11.1033,0.5908  c2.0471-0.6592,3.9971-1.7705,5.8123-3.3332c0.6614-0.5694,0.7358-1.5672,0.1663-2.2284c-0.5694-0.6615-1.5672-0.7361-2.2286-0.1665  C18.4873,31.592,12.0254,29.2523,8.52,27.1992c3.968-1.1641,10.9981-3.6879,18.9725-8.64c2.0088-1.2475,4.0877-1.5837,6.3558-1.0271  c6.5167,1.5986,12.245,9.9746,13.6602,12.1863C45.2373,30.3385,43.3572,32.0834,41.6599,33.6609z M43.5292,61.7785  c-0.0125-1.6963,1.4527-3.316,4.0966-4.6179v9.5151C45.1135,65.3588,43.5426,63.5471,43.5292,61.7785z M47.0805,77.2378  c-0.6756-0.5907-2.7316-2.3886-2.473-3.6149c0.0821-0.3893,0.5533-1.3086,3.0183-2.3068v6.454  C47.4529,77.5852,47.2728,77.406,47.0805,77.2378z M53.8557,73.6094c0.2589,1.199-1.6579,2.9088-2.4764,3.6388  c-0.2099,0.1871-0.4063,0.3854-0.5932,0.5908v-6.5463C53.2908,72.2952,53.7715,73.2196,53.8557,73.6094z M54.9421,61.7783  c-0.0132,1.7825-1.6091,3.6086-4.1559,4.9278v-9.5747C53.4676,58.4382,54.9549,60.0695,54.9421,61.7783z M73.7387,26.2317  c-0.6614-0.5696-1.6588-0.4949-2.2286,0.1665c-0.5694,0.6612-0.495,1.659,0.1664,2.2284c1.8152,1.5627,3.7649,2.6739,5.8117,3.3332  c-2.2747,1.3118-6.2931,2.5609-11.1021-0.5906c-0.7305-0.4787-1.7095-0.2745-2.1878,0.4554  c-0.4784,0.7299-0.2747,1.7093,0.4552,2.1877c0.5604,0.3673,1.1162,0.6857,1.6667,0.9636  c-2.4443,1.0506-6.1282,1.8292-9.1381-0.9528l-0.391-0.3628c-1.697-1.5771-3.5769-3.3217-5.8481-3.9418  c1.4152-2.2117,7.1435-10.5877,13.6602-12.1863c2.2684-0.5571,4.3469-0.2202,6.3558,1.0271  c7.9745,4.9522,15.0046,7.4758,18.9722,8.64C86.4243,29.2523,79.9633,31.5912,73.7387,26.2317z"/><text x="0" y="115" fill="#000000" font-size="5px" font-weight="bold" font-family="'Helvetica Neue', Helvetica, Arial-Unicode, Arial, Sans-serif">Created by HeadsOfBirds</text><text x="0" y="120" fill="#000000" font-size="5px" font-weight="bold" font-family="'Helvetica Neue', Helvetica, Arial-Unicode, Arial, Sans-serif">from the Noun Project</text></svg>