<svg xmlns="http://www.w3.org/2000/svg" xmlns:xlink="http://www.w3.org/1999/xlink" version="1.1" x="0px" y="0px" viewBox="0 0 64 80" enable-background="new 0 0 64 64" xml:space="preserve"><g><g><path d="M51.2584381,43.5675163l-6.4785156-4.5268555c-0.847168-0.5898438-1.8374023-0.9018555-2.8642578-0.9018555    c-1.6333008,0-3.1660156,0.8007813-4.0996094,2.140625l-1.5039063,2.1552734    c-2.5205078-1.6904297-5.3334942-4.0507813-8.01367-6.730957c-2.6806641-2.6806641-5.0410156-5.493166-6.7304688-8.0136738    l2.1538086-1.503418c2.2612305-1.574707,2.8173828-4.6987305,1.2387695-6.965332l-4.5258789-6.4775381    c-0.9467773-1.3540039-2.4741211-2.1621094-4.0854492-2.1621094c-0.5581055,0-1.105957,0.0981445-1.6279297,0.2910156    c-0.5917969,0.2192383-1.1430664,0.4873047-1.684082,0.8266602l-0.8945313,0.6298828    c-0.2236328,0.1743164-0.4316406,0.3642578-0.6308594,0.5634766c-1.0913086,1.0913086-1.8662109,2.472168-2.3027344,4.1049795    c-1.8647466,6.9907227,2.7548828,17.5600605,11.4951172,26.3002949    c7.3398438,7.3398438,16.1577129,11.8999023,23.0122051,11.9003906c0.0004883,0,0.0009766,0,0.0014648,0    c1.1728516,0,2.2783203-0.1367188,3.2871094-0.4052734c1.6328125-0.4365234,3.0136719-1.2114258,4.1035156-2.3017578    c0.199707-0.1987305,0.3901367-0.4072266,0.5932617-0.6704102l0.6308594-0.9003906    c0.309082-0.4951172,0.5771484-1.046875,0.796875-1.6396484C53.8922272,47.2203484,53.1231842,44.870739,51.2584381,43.5675163z     M51.2535553,48.5865593c-0.171875,0.4658203-0.3798828,0.894043-0.5874023,1.2290039l-0.5722656,0.8168945    c-0.1225586,0.1577148-0.2573242,0.3027344-0.3989258,0.4438477c-0.8388672,0.8398438-1.9179688,1.4399414-3.2060547,1.7841797    c-0.8398438,0.2241211-1.7719727,0.3378906-2.7709961,0.3378906c-0.0004883,0-0.0009766,0-0.0014648,0    c-6.34375-0.0004883-14.619627-4.3359375-21.5981426-11.3144531c-8.1235352-8.1235352-12.637207-18.1450214-10.9765625-24.3701191    c0.3442383-1.2880859,0.9443359-2.3671865,1.7841797-3.2070303c0.140625-0.140625,0.2861328-0.2758789,0.4052734-0.3696289    l0.8105469-0.5712891c0.3808594-0.237793,0.809082-0.4453125,1.2739258-0.6171875    c0.2988281-0.1108398,0.6132813-0.1669922,0.9335938-0.1669922c0.9589844,0,1.8735352,0.4892578,2.4462891,1.3081055    l4.5244141,6.475585c0.9477539,1.3603516,0.6152344,3.2353516-0.7416992,4.1806641l-2.9482422,2.0576172    c-0.4375,0.3051758-0.5581055,0.9003906-0.2744141,1.3520508c1.784668,2.8383789,4.4584961,6.0922871,7.5288086,9.1621113    c3.0693359,3.0698242,6.322752,5.7436523,9.1621075,7.5292969c0.4521484,0.2836914,1.046875,0.1625977,1.3525391-0.2744141    l2.0581055-2.949707c0.9121094-1.3100586,2.8613281-1.6601563,4.1787109-0.7416992l6.4770508,4.5258789    C51.2315826,45.988903,51.7008209,47.3785515,51.2535553,48.5865593z"/><path d="M47.9254303,16.07728c-4.3100586-4.3105459-10.0317383-6.8935537-16.1108379-7.2734365    c-0.5478516-0.0366211-1.0258789,0.3847656-1.0605469,0.9355469c-0.034668,0.5512695,0.3842773,1.0258789,0.9355469,1.0605469    c5.5922832,0.3496094,10.8559551,2.7260742,14.8217754,6.6914053c3.9648438,3.9648438,6.3408203,9.2280273,6.690918,14.8203144    c0.0332031,0.5297852,0.4731445,0.9375,0.9970703,0.9375c0.0209961,0,0.0419922-0.0004883,0.0634766-0.0019531    c0.5512695-0.034668,0.9702148-0.5092773,0.9355469-1.0605469C54.8180084,26.1080418,52.2350006,20.3868504,47.9254303,16.07728z"/><path d="M31.3145924,16.7882175c4.1332989,0.2587891,8.0234356,2.0151367,10.9540997,4.9458008    c2.9301758,2.9306641,4.6865234,6.8203125,4.9453125,10.9526386c0.0332031,0.5297852,0.4731445,0.9375,0.9970703,0.9375    c0.0209961,0,0.0419922-0.0004883,0.0634766-0.0019531c0.5512695-0.034668,0.9702148-0.5092773,0.9355469-1.0605469    c-0.2890625-4.6191425-2.2519531-8.9667988-5.5273438-12.2417011c-3.2753906-3.2753906-7.6235352-5.2387686-12.2431622-5.5278311    c-0.5532227-0.0307617-1.0258789,0.3847656-1.0605469,0.9355469    C30.3443775,16.2789402,30.7633228,16.7535496,31.3145924,16.7882175z"/><path d="M30.9395924,22.7764988c2.6733379,0.1674805,5.1899395,1.3037109,7.0864239,3.199707    c1.8959961,1.8964844,3.0322266,4.4125977,3.2001953,7.0854511c0.0332031,0.5302734,0.4736328,0.9375,0.9970703,0.9375    c0.0209961,0,0.0424805-0.0004883,0.0634766-0.0019531c0.5512695-0.034668,0.9702148-0.5097656,0.9355469-1.0605469    c-0.1982422-3.1596699-1.5415039-6.1333027-3.7822266-8.3745136c-2.2412109-2.2407227-5.2158203-3.5839844-8.3754864-3.7817383    c-0.5585938-0.0375977-1.0258789,0.3847656-1.0605469,0.9355469    C29.9693775,22.2672215,30.3883228,22.7418308,30.9395924,22.7764988z"/></g></g><text x="0" y="79" fill="#000000" font-size="5px" font-weight="bold" font-family="'Helvetica Neue', Helvetica, Arial-Unicode, Arial, Sans-serif">Created by Tauficon</text><text x="0" y="84" fill="#000000" font-size="5px" font-weight="bold" font-family="'Helvetica Neue', Helvetica, Arial-Unicode, Arial, Sans-serif">from the Noun Project</text></svg>