<svg xmlns="http://www.w3.org/2000/svg" xmlns:xlink="http://www.w3.org/1999/xlink" version="1.1" x="0px" y="0px" viewBox="0 0 80 100" style="enable-background:new 0 0 80 80;" xml:space="preserve"><style type="text/css">
	.st0{fill:none;}
</style><path d="M40,7C21.8,7,7,21.8,7,40s14.8,33,33,33s33-14.8,33-33S58.2,7,40,7z M40,71C22.91,71,9,57.09,9,40S22.91,9,40,9  s31,13.91,31,31S57.09,71,40,71z"/><path d="M40,17.02c0.55,0,1-0.45,1-1v-4.58c0-0.55-0.45-1-1-1s-1,0.45-1,1v4.58C39,16.57,39.45,17.02,40,17.02z"/><path d="M40,63.15c-0.55,0-1,0.45-1,1v4.58c0,0.55,0.45,1,1,1s1-0.45,1-1v-4.58C41,63.6,40.55,63.15,40,63.15z"/><path d="M15.94,39.08h-4.58c-0.55,0-1,0.45-1,1s0.45,1,1,1h4.58c0.55,0,1-0.45,1-1S16.49,39.08,15.94,39.08z"/><path d="M64.06,41.08h4.58c0.55,0,1-0.45,1-1s-0.45-1-1-1h-4.58c-0.55,0-1,0.45-1,1S63.51,41.08,64.06,41.08z"/><path d="M59.55,19.12l-3.24,3.24c-0.39,0.39-0.39,1.02,0,1.41c0.2,0.2,0.45,0.29,0.71,0.29s0.51-0.1,0.71-0.29l3.24-3.24  c0.39-0.39,0.39-1.02,0-1.41S59.94,18.73,59.55,19.12z"/><path d="M22.28,56.39l-3.24,3.24c-0.39,0.39-0.39,1.02,0,1.41c0.2,0.2,0.45,0.29,0.71,0.29s0.51-0.1,0.71-0.29l3.24-3.24  c0.39-0.39,0.39-1.02,0-1.41S22.67,56,22.28,56.39z"/><path d="M20.45,19.12c-0.39-0.39-1.02-0.39-1.41,0s-0.39,1.02,0,1.41l3.24,3.24c0.2,0.2,0.45,0.29,0.71,0.29s0.51-0.1,0.71-0.29  c0.39-0.39,0.39-1.02,0-1.41L20.45,19.12z"/><path d="M57.72,56.39c-0.39-0.39-1.02-0.39-1.41,0s-0.39,1.02,0,1.41l3.24,3.24c0.2,0.2,0.45,0.29,0.71,0.29s0.51-0.1,0.71-0.29  c0.39-0.39,0.39-1.02,0-1.41L57.72,56.39z"/><path d="M50.31,39.08h-6c-0.38-1.64-1.67-2.93-3.31-3.31V22.9c0-0.55-0.45-1-1-1s-1,0.45-1,1v12.87c-1.97,0.46-3.44,2.21-3.44,4.31  c0,2.45,1.99,4.44,4.44,4.44c2.1,0,3.86-1.47,4.31-3.44h6c0.55,0,1-0.45,1-1S50.87,39.08,50.31,39.08z M40,42.52  c-1.34,0-2.44-1.09-2.44-2.44s1.09-2.44,2.44-2.44s2.44,1.09,2.44,2.44S41.34,42.52,40,42.52z"/><text x="0" y="95" fill="#000000" font-size="5px" font-weight="bold" font-family="'Helvetica Neue', Helvetica, Arial-Unicode, Arial, Sans-serif">Created by Vectorstall</text><text x="0" y="100" fill="#000000" font-size="5px" font-weight="bold" font-family="'Helvetica Neue', Helvetica, Arial-Unicode, Arial, Sans-serif">from the Noun Project</text></svg>